@startuml ansible
!theme plain
skinparam classAttributeIconSize 0
skinparam classFontStyle bold

class Ansible{
  + become : BOOLEAN [0..1]
  + hosts : STRING [0..1]
  + name : STRING [0..1]
  + serial : INTEGER [0..1]
  + vars_files : STRING [0..*]
  + gather_facts : BOOLEAN [0..1]
  + connection : STRING [0..1]
  + remote_user : STRING [0..1]
  + import_playbook : STRING [0..1]
}

class Vars{
  + backup_dir : STRING [0..1]
  + db_name : STRING [0..1]
  + db_user : STRING [0..1]
  + retention_days : INTEGER [0..1]
  + my_color_choice : STRING [0..1]
  + nodejs_install_npm_user : STRING [0..1]
  + npm_config_prefix : STRING [0..1]
  + nodejs_npm_global_packages : STRING [0..*]
  + firewall_allowed_tcp_ports : STRING [0..*]
  + build_root : STRING [0..1]
  + base_image : STRING [0..1]
  + container_name : STRING [0..1]
  + image_namespace : STRING [0..1]
  + image_name : STRING [0..1]
  + ansible_install_method : STRING [0..1]
  + jenkins_plugins : STRING [0..*]
  + aws_profile : STRING [0..1]
  + aws_region : STRING [0..1]
  + aws_ec2_ami : STRING [0..1]
  + node_apps_location : STRING [0..1]
  + app_port : INTEGER [0..1]
  + app_user : STRING [0..1]
  + app_dir : STRING [0..1]
  + firewall_enable_ipv6 : BOOLEAN [0..1]
  + pip_install_packages : STRING [0..*]
  + ansible_python_interpreter : STRING [0..1]
}

class Task{
  + name : STRING [0..1]
  + command : STRING [0..1]
  + become_user : STRING [0..1]
  + register : STRING [0..1]
  + loop : STRING [0..1]
  + notify : STRING [0..1]
  + become : BOOLEAN [0..1]
  + when : STRING [0..1]
  + environment : STRING [0..1]
  + npm : STRING [0..1]
  + changed_when : BOOLEAN [0..1]
  + import_tasks : STRING [0..1]
  + shell : STRING [0..1]
  + apt_repository : STRING [0..1]
  + apache2_module : STRING [0..1]
  + mysql_db : STRING [0..1]
  + run_once : BOOLEAN [0..1]
  + async : INTEGER [0..1]
  + poll : INTEGER [0..1]
  + raw : STRING [0..1]
  + delegate_to : STRING [0..1]
  + with_indexed_items : STRING [0..1]
  + wait_for_connection : STRING [0..1]
}

abstract class File{
}

class Archive{
  + path : STRING [1..1]
  + dest : STRING [1..1]
  + format : STRING [1..1]
  + remove : BOOLEAN [1..1]
}

class Find{
  + paths : STRING [1..1]
  + age : STRING [1..1]
  + patterns : STRING [1..1]
}

class Assert{
  + that : STRING [1..1]
}

class Post_task{
  + name : STRING [1..1]
  + delegate_to : STRING [0..1]
  + with_items : STRING [0..1]
  + shell : STRING [0..1]
  + command : STRING [0..1]
}

class Wait_for{
  + host : STRING [1..1]
  + port : INTEGER [1..1]
  + state : STRING [1..1]
  + timeout : INTEGER [1..1]
}

class Haproxy{
  + state : STRING [1..1]
  + host : STRING [1..1]
  + socket : STRING [1..1]
  + backend : STRING [1..1]
}

class Pre_task{
  + name : STRING [1..1]
  + delegate_to : STRING [0..1]
  + with_items : STRING [0..1]
  + service : STRING [0..1]
}

class Pause{
  + seconds : INTEGER [1..1]
}

class Git{
  + repo : STRING [1..1]
  + version : STRING [1..1]
  + dest : STRING [1..1]
  + accept_hostkey : BOOLEAN [1..1]
  + force : BOOLEAN [0..1]
}

class Template{
  + src : STRING [1..1]
  + dest : STRING [1..1]
  + owner : STRING [0..1]
  + group : STRING [0..1]
  + mode : INTEGER [0..1]
}

abstract class Apt{
}

class Cron{
  + name : STRING [1..1]
  + special_time : STRING [1..1]
  + job : STRING [1..1]
}

class Handler{
  + name : STRING [0..1]
  + command : STRING [0..1]
  + service : STRING [0..1]
  + import_tasks : STRING [0..1]
}

abstract class Role{
}

class Set_fact{
  + host_ip_address : STRING [0..1]
  + mysql_replication_master : STRING [0..1]
}

abstract class Copy{
}

class Docker_image{
  + name : STRING [1..1]
  + source : STRING [1..1]
  + force_source : BOOLEAN [0..1]
  + state : STRING [0..1]
}

class Docker_container{
  + image : STRING [0..1]
  + name : STRING [1..1]
  + command : STRING [0..1]
  + state : STRING [0..1]
}

class Add_host{
  + hostname : STRING [0..1]
  + ansible_connection : STRING [0..1]
  + name : STRING [0..1]
  + groups : STRING [0..1]
  + ansible_ssh_extra_args : STRING [0..1]
  + ansible_kubectl_namespace : STRING [0..1]
  + ansible_kubectl_config : STRING [0..1]
  + ansible_user : STRING [0..1]
  + host_key_checking : BOOLEAN [0..1]
  + mysql_replication_role : STRING [0..1]
  + mysql_server_id : STRING [0..1]
}

class Build{
  + path : STRING [1..1]
}

class Lineinfile{
  + dest : STRING [1..1]
  + regexp : STRING [1..1]
  + line : STRING [1..1]
  + state : STRING [1..1]
  + validate : STRING [0..1]
}

class Mysql_user{
  + name : STRING [1..1]
  + password : STRING [1..1]
  + priv : STRING [1..1]
  + host : STRING [1..1]
  + state : STRING [0..1]
}

class Get_url{
  + url : STRING [1..1]
  + dest : STRING [1..1]
  + mode : INTEGER [0..1]
  + checksum : STRING [0..1]
}

abstract class Stat{
}

class Composer{
  + command : STRING [1..1]
  + arguments : STRING [1..1]
  + working_dir : STRING [1..1]
  + no_dev : BOOLEAN [0..1]
}

class Digital_ocean_droplet{
  + state : STRING [1..1]
  + name : STRING [1..1]
  + private_networking : BOOLEAN [1..1]
  + size : STRING [1..1]
  + image_id : STRING [0..1]
  + region : STRING [1..1]
  + ssh_keys : INTEGER [1..*]
  + unique_name : BOOLEAN [1..1]
  + image : STRING [0..1]
}

abstract class Dnf{
}

abstract class Service{
}

class Gluster_volume{
  + state : STRING [1..1]
  + name : STRING [1..1]
  + brick : STRING [1..1]
  + replicas : INTEGER [1..1]
  + cluster : STRING [1..1]
  + host : STRING [1..1]
  + force : BOOLEAN [1..1]
}

class Mount{
  + name : STRING [1..1]
  + src : STRING [1..1]
  + fstype : STRING [1..1]
  + opts : STRING [1..1]
  + state : STRING [1..1]
}

class Community.kubernetes.helm{
  + name : STRING [1..1]
  + chart_ref : STRING [1..1]
  + release_namespace : STRING [1..1]
  + state : STRING [0..1]
}

class Unarchive{
  + src : STRING [1..1]
  + dest : STRING [1..1]
  + creates : STRING [1..1]
  + remote_src : BOOLEAN [1..1]
}

class Args{
  + creates : STRING [1..1]
}

class Community.kubernetes.helm_repository{
  + name : STRING [1..1]
  + repo_url : STRING [1..1]
}

class Value{
  + id : STRING [1..1]
  + type : STRING [1..1]
}

class Pip{
  + name : STRING [1..1]
  + state : STRING [1..1]
}

class Community.kubernetes.k8s{
  + api_version : STRING [1..1]
  + kind : STRING [1..1]
  + name : STRING [1..1]
  + namespace : STRING [1..1]
}

abstract class Debug{
}

class K8s{
  + state : STRING [1..1]
  + api_version : STRING [0..1]
  + kind : STRING [0..1]
  + namespace : STRING [0..1]
  + name : STRING [0..1]
}

abstract class Definition{
}

class Metadata{
  + name : STRING [1..1]
  + namespace : STRING [1..1]
}

class Labels{
  + app : STRING [1..1]
}

class Spec{
  + type : STRING [1..1]
}

class Port{
  + port : INTEGER [1..1]
  + protocol : STRING [1..1]
  + targetPort : INTEGER [1..1]
}

class Selector{
  + app : STRING [1..1]
}

class Fetch{
  + src : STRING [1..1]
  + dest : STRING [1..1]
  + flat : BOOLEAN [1..1]
}

class Seboolean{
  + name : STRING [1..1]
  + state : BOOLEAN [1..1]
  + persistent : BOOLEAN [1..1]
}

class Instance{
  + name : STRING [1..1]
  + group : STRING [1..1]
  + security_group : STRING [1..*]
}

class Security_group{
  + name : STRING [1..1]
}

class Rule{
  + proto : STRING [1..1]
  + from_port : INTEGER [1..1]
  + to_port : INTEGER [1..1]
  + cidr_ip : STRING [1..1]
}

class Ec2_group{
  + name : STRING [1..1]
  + description : STRING [1..1]
  + state : STRING [1..1]
  + rules : STRING [1..1]
  + rules_egress : STRING [1..1]
  + profile : STRING [1..1]
  + region : STRING [1..1]
}

class Ec2{
  + key_name : STRING [1..1]
  + group : STRING [1..1]
  + instance_type : STRING [1..1]
  + image : STRING [1..1]
  + wait : BOOLEAN [1..1]
  + wait_timeout : INTEGER [1..1]
  + exact_count : INTEGER [1..1]
  + profile : STRING [1..1]
  + region : STRING [1..1]
}

class Instance_tags{
  + Name : STRING [1..1]
  + Application : STRING [1..1]
  + inventory_group : STRING [1..1]
  + inventory_host : STRING [1..1]
}

class Count_tag{
  + inventory_host : STRING [1..1]
}

class Droplet{
  + name : STRING [1..1]
  + group : STRING [1..1]
}

class Rpm_key{
  + key : STRING [1..1]
  + state : STRING [1..1]
}

class Seport{
  + ports : INTEGER [1..1]
  + proto : STRING [1..1]
  + setype : STRING [1..1]
  + state : STRING [1..1]
}

abstract class With_item{
}

class User{
  + name : STRING [1..1]
  + state : STRING [0..1]
  + system : BOOLEAN [0..1]
  + shell : STRING [0..1]
}

class Firewalld{
  + state : STRING [1..1]
  + port : STRING [1..1]
  + zone : STRING [1..1]
  + immediate : BOOLEAN [1..1]
  + permanent : BOOLEAN [1..1]
}

class Selinux{
  + policy : STRING [1..1]
  + state : STRING [1..1]
}

class Systemd{
  + name : STRING [1..1]
  + state : STRING [1..1]
  + enabled : BOOLEAN [1..1]
}

class RoleObject{
  + role : STRING [0..1]
  + name : STRING [0..1]
  + delegate_to : STRING [0..1]
  + tags : STRING [0..*]
}

class RoleValue{
  + value : STRING [1..*]
}

class StatObject{
  + path : STRING [1..1]
}

class StatValue{
  + value : STRING [1..1]
}

class With_itemObject{
  + regexp : STRING [0..1]
  + line : STRING [0..1]
  + state : STRING [0..1]
  + port : STRING [0..1]
}

class With_itemValue{
  + value : STRING [1..*]
}

class ServiceObject{
  + name : STRING [1..1]
  + state : STRING [1..1]
  + enabled : BOOLEAN [0..1]
}

class ServiceValue{
  + value : STRING [1..1]
}

class DnfObject{
  + name : STRING [1..*]
  + state : STRING [1..1]
  + enablerepo : STRING [0..1]
}

class DnfValue{
  + value : STRING [1..1]
}

class DebugObject{
  + var : STRING [1..1]
}

class DebugValue{
  + value : STRING [1..1]
}

class FileObject{
  + path : STRING [1..1]
  + state : STRING [0..1]
  + owner : STRING [0..1]
  + mode : STRING [0..1]
  + group : STRING [0..1]
  + recurse : BOOLEAN [0..1]
}

class FileValue{
  + value : STRING [1..1]
}

class CopyObject{
  + src : STRING [0..1]
  + dest : STRING [1..1]
  + mode : STRING [0..1]
  + owner : STRING [0..1]
  + group : STRING [0..1]
  + force : BOOLEAN [0..1]
  + content : STRING [0..1]
}

class CopyValue{
  + value : STRING [1..1]
}

class AptObject{
  + name : STRING [0..*]
  + state : STRING [0..1]
  + update_cache : BOOLEAN [0..1]
  + cache_valid_time : INTEGER [0..1]
}

class AptValue{
  + value : STRING [1..1]
}

class DefinitionObject{
  + apiVersion : STRING [1..1]
  + kind : STRING [1..1]
}

class DefinitionValue{
  + value : STRING [1..1]
}

Role <|-- RoleObject
Role <|-- RoleValue
Stat <|-- StatObject
Stat <|-- StatValue
With_item <|-- With_itemObject
With_item <|-- With_itemValue
Service <|-- ServiceObject
Service <|-- ServiceValue
Dnf <|-- DnfObject
Dnf <|-- DnfValue
Debug <|-- DebugObject
Debug <|-- DebugValue
File <|-- FileObject
File <|-- FileValue
Copy <|-- CopyObject
Copy <|-- CopyValue
Apt <|-- AptObject
Apt <|-- AptValue
Definition <|-- DefinitionObject
Definition <|-- DefinitionValue

Ansible *--> "0..1" Vars : vars
Ansible *--> "0..*" Task : tasks
Ansible *--> "0..*" Post_task : post_tasks
Ansible *--> "0..*" Pre_task : pre_tasks
Ansible *--> "0..*" Handler : handlers
Ansible *--> "0..*" Role : roles
Vars *--> "0..*" Instance : instances
Vars *--> "0..*" Security_group : security_groups
Vars *--> "0..*" Droplet : droplets
Task *--> "0..1" File : file
Task *--> "0..1" Archive : archive
Task *--> "0..1" Find : find
Task *--> "0..1" Assert : assert
Task *--> "0..1" Pause : pause
Task *--> "0..1" Git : git
Task *--> "0..1" Template : template
Task *--> "0..1" Apt : apt
Task *--> "0..1" Cron : cron
Task *--> "0..1" Set_fact : set_fact
Task *--> "0..1" Copy : copy
Task *--> "0..1" Docker_image : docker_image
Task *--> "0..1" Docker_container : docker_container
Task *--> "0..1" Lineinfile : lineinfile
Task *--> "0..1" Mysql_user : mysql_user
Task *--> "0..1" Get_url : get_url
Task *--> "0..1" Stat : stat
Task *--> "0..1" Composer : composer
Task *--> "0..1" Digital_ocean_droplet : digital_ocean_droplet
Task *--> "0..1" Add_host : add_host
Task *--> "0..1" Dnf : dnf
Task *--> "0..1" Service : service
Task *--> "0..1" Gluster_volume : gluster_volume
Task *--> "0..1" Mount : mount
Task *--> "0..1" Community.kubernetes.helm : community.kubernetes.helm
Task *--> "0..1" Unarchive : unarchive
Task *--> "0..1" Args : args
Task *--> "0..1" Community.kubernetes.helm_repository : community.kubernetes.helm_repository
Task *--> "0..1" Pip : pip
Task *--> "0..1" Community.kubernetes.k8s : community.kubernetes.k8s
Task *--> "0..1" Debug : debug
Task *--> "0..1" K8s : k8s
Task *--> "0..1" Community.kubernetes.k8s : k8s_info
Task *--> "0..1" Fetch : fetch
Task *--> "0..1" Pip : package
Task *--> "0..1" Seboolean : seboolean
Task *--> "0..1" Ec2_group : ec2_group
Task *--> "0..1" Ec2 : ec2
Task *--> "0..1" Rpm_key : rpm_key
Task *--> "0..1" Seport : seport
Task *--> "0..*" With_item : with_items
Task *--> "0..1" User : user
Task *--> "0..1" Firewalld : firewalld
Task *--> "0..1" Selinux : selinux
Task *--> "0..1" Systemd : systemd
Post_task *--> "0..1" Wait_for : wait_for
Post_task *--> "0..1" Haproxy : haproxy
Post_task *--> "0..1" Docker_container : docker_container
Pre_task *--> "0..1" Haproxy : haproxy
Pre_task *--> "0..1" Docker_image : docker_image
Pre_task *--> "0..1" Docker_container : docker_container
Pre_task *--> "0..1" Add_host : add_host
Pre_task *--> "0..1" Apt : apt
Pre_task *--> "0..1" Pip : package
Pre_task *--> "0..1" Pip : pip
Pre_task *--> "0..1" Copy : copy
Pre_task *--> "0..1" Set_fact : set_fact
Pre_task *--> "0..1" Rpm_key : rpm_key
Pre_task *--> "0..1" Dnf : dnf
Set_fact *--> "0..*" Mysql_user : mysql_users
Docker_image *--> "0..1" Build : build
Community.kubernetes.helm *--> "0..*" Value : values
K8s *--> "0..1" Definition : definition
Metadata *--> "1..1" Labels : labels
Spec *--> "1..*" Port : ports
Spec *--> "1..1" Selector : selector
Security_group *--> "1..*" Rule : rules
Ec2 *--> "1..1" Instance_tags : instance_tags
Ec2 *--> "1..1" Count_tag : count_tag
DefinitionObject *--> "1..1" Metadata : metadata
DefinitionObject *--> "1..1" Spec : spec

@enduml
